HIERARCHY
ROOT Pelvis
{
	OFFSET 0.000000 0.000000 0.000000
	CHANNELS 6 Xposition Yposition Zposition Zrotation Yrotation Xrotation 
	JOINT Left_hip
	{
		OFFSET 0.067986 -0.089946 -0.007639
		CHANNELS 3 Zrotation Yrotation Xrotation
		JOINT Left_knee
		{
			OFFSET 0.036308 -0.388288 -0.004016
			CHANNELS 3 Zrotation Yrotation Xrotation
			JOINT Left_ankle
			{
				OFFSET -0.012264 -0.413250 -0.042878
				CHANNELS 3 Zrotation Yrotation Xrotation
				JOINT Left_foot
				{
					OFFSET 0.024043 -0.058563 0.118570
					CHANNELS 3 Zrotation Yrotation Xrotation
					End Site
					{
						OFFSET 0.000000 0.000000 0.000000
					}
				}
			}
		}
	}
	JOINT Right_hip
	{
		OFFSET -0.065648 -0.089374 -0.003858
		CHANNELS 3 Zrotation Yrotation Xrotation
		JOINT Right_knee
		{
			OFFSET -0.042132 -0.395021 -0.006361
			CHANNELS 3 Zrotation Yrotation Xrotation
			JOINT Right_ankle
			{
				OFFSET 0.014805 -0.413264 -0.041054
				CHANNELS 3 Zrotation Yrotation Xrotation
				JOINT Right_foot
				{
					OFFSET -0.021758 -0.049013 0.121832
					CHANNELS 3 Zrotation Yrotation Xrotation
					End Site
					{
						OFFSET 0.000000 0.000000 0.000000
					}
				}
			}
		}
	}
	JOINT Spine1
	{
		OFFSET -0.002755 0.104406 -0.022277
		CHANNELS 3 Zrotation Yrotation Xrotation
		JOINT Spine2
		{
			OFFSET 0.004136 0.129393 -0.002186
			CHANNELS 3 Zrotation Yrotation Xrotation
			JOINT Spine3
			{
				OFFSET 0.001906 0.049304 0.025578
				CHANNELS 3 Zrotation Yrotation Xrotation
				JOINT Neck
				{
					OFFSET -0.004620 0.210958 -0.044063
					CHANNELS 3 Zrotation Yrotation Xrotation
					JOINT Head
					{
						OFFSET 0.003833 0.067393 0.052435
						CHANNELS 3 Zrotation Yrotation Xrotation
						End Site
						{
							OFFSET 0.000000 0.000000 0.000000
						}
					}
				}
				JOINT Left_collar
				{
					OFFSET 0.070771 0.116689 -0.037192
					CHANNELS 3 Zrotation Yrotation Xrotation
					JOINT Left_shoulder
					{
						OFFSET 0.080652 0.031596 -0.005617
						CHANNELS 3 Zrotation Yrotation Xrotation
						JOINT Left_elbow
						{
							OFFSET 0.262654 -0.015020 -0.027939
							CHANNELS 3 Zrotation Yrotation Xrotation
							JOINT Left_wrist
							{
								OFFSET 0.250438 0.010062 -0.000990
								CHANNELS 3 Zrotation Yrotation Xrotation
								JOINT Left_palm
								{
									OFFSET 0.081198 -0.010037 -0.013706
									CHANNELS 3 Zrotation Yrotation Xrotation
									End Site
									{
										OFFSET 0.000000 0.000000 0.000000
									}
								}
							}
						}
					}
				}
				JOINT Right_collar
				{
					OFFSET -0.072972 0.115556 -0.040762
					CHANNELS 3 Zrotation Yrotation Xrotation
					JOINT Right_shoulder
					{
						OFFSET -0.082917 0.031841 -0.006673
						CHANNELS 3 Zrotation Yrotation Xrotation
						JOINT Right_elbow
						{
							OFFSET -0.252882 -0.013790 -0.020410
							CHANNELS 3 Zrotation Yrotation Xrotation
							JOINT Right_wrist
							{
								OFFSET -0.255570 0.009163 -0.005138
								CHANNELS 3 Zrotation Yrotation Xrotation
								JOINT Right_palm
								{
									OFFSET -0.080804 -0.007282 -0.010415
									CHANNELS 3 Zrotation Yrotation Xrotation
									End Site
									{
										OFFSET 0.000000 0.000000 0.000000
									}
								}
							}
						}
					}
				}
			}
		}
	}
}
MOTION
Frames: 8
Frame Time: 0.100000
0.000000 0.000000 0.000000 174.363864 25.401614 -12.852656 7.538740 6.378942 2.965483 -2.240864 -16.845350 -3.341725 -5.963841 16.083002 -3.369970 2.962289 -1.843703 -5.342223 -4.929719 -4.365050 1.769966 3.869625 14.466880 0.651335 6.296446 -14.140539 -6.697638 -1.507089 6.466658 3.527972 1.488850 1.154953 2.867472 0.465636 -3.427327 -0.279187 1.180627 1.309730 1.314274 -6.634805 -0.729349 3.129379 6.414907 -0.736768 -15.768593 -1.609706 1.726312 -9.183583 3.399725 0.317814 -15.242562 0.859723 -6.046434 -8.126465 1.899463 -7.837164 24.394761 -5.506243 -8.029050 -7.727071 1.640734 0.808052 -3.704855 -1.810712 -7.651647 -20.374912 -1.700943 7.735715 -3.671140 -0.420622 7.249094 25.139650 10.249906 7.404913 -6.773130 
0.000139 0.000039 -0.000052 174.359138 25.402138 -12.927603 7.566300 6.384679 3.040637 -2.255736 -16.858209 -3.342999 -5.918446 16.060288 -3.355063 2.909392 -1.788791 -5.374531 -4.931960 -4.362885 1.843130 3.884105 14.478366 0.657776 6.297493 -14.130851 -6.715272 -1.530096 6.424810 3.520097 1.485894 1.153411 2.927813 0.477961 -3.423845 -0.240028 1.177736 1.298261 1.334474 -6.594289 -0.689254 3.136652 6.370645 -0.765567 -15.739522 -1.585719 1.760088 -9.165091 3.270240 0.301218 -15.172547 0.895652 -6.138952 -7.843819 1.745037 -7.669544 24.603571 -5.546361 -8.064024 -7.833952 1.676224 0.796551 -3.719056 -1.587762 -7.564480 -20.297876 -1.758142 7.769855 -3.617377 -0.344269 7.084919 25.146910 10.304341 7.433233 -6.832601 
0.000335 0.000039 -0.000020 174.359970 25.406631 -12.917275 7.569284 6.381353 3.016409 -2.251524 -16.857550 -3.321872 -5.949934 16.077865 -3.364447 2.944409 -1.827055 -5.368676 -4.921704 -4.361071 1.848107 3.881508 14.480063 0.621910 6.278335 -14.146155 -6.697617 -1.496728 6.470031 3.525155 1.469267 1.162821 2.915981 0.473564 -3.423978 -0.228314 1.181502 1.294990 1.307065 -6.636327 -0.677675 3.071027 6.361750 -0.778865 -15.742515 -1.640771 1.743919 -9.168045 3.371642 0.302237 -15.247983 0.917989 -6.135640 -8.120412 1.980849 -7.804386 24.490309 -5.551819 -8.057079 -7.779631 1.752438 0.811777 -3.697163 -1.612728 -7.642097 -20.292923 -1.737527 7.728401 -3.691898 -0.464271 7.201105 25.110602 10.290078 7.433743 -6.777312 
0.000504 -0.000002 0.000095 174.342222 25.414436 -12.910156 7.593219 6.386918 2.974271 -2.258212 -16.862401 -3.282199 -5.950415 16.084309 -3.364778 2.939343 -1.845364 -5.396222 -4.893102 -4.362579 1.827590 3.888120 14.489750 0.625985 6.284645 -14.170856 -6.689646 -1.519676 6.496777 3.507131 1.428142 1.148394 2.929310 0.479369 -3.427008 -0.215928 1.191422 1.279700 1.315029 -6.616076 -0.668911 2.926922 6.387714 -0.797068 -15.882839 -1.633889 1.843478 -9.141427 3.445923 0.488189 -15.186838 1.006292 -6.564523 -7.925941 2.090693 -7.860871 24.545805 -5.572858 -8.069912 -7.820696 1.773176 0.744148 -3.684051 -1.618689 -7.713907 -20.275538 -1.777806 7.842024 -3.669722 -0.559099 7.239349 25.000635 10.305446 7.432912 -6.761050 
0.000472 -0.000035 0.000228 174.331225 25.375434 -12.937947 7.615910 6.377809 3.021914 -2.249227 -16.798184 -3.283077 -5.964803 16.035516 -3.395886 2.982665 -1.811178 -5.415108 -4.877044 -4.347296 1.874897 3.879113 14.434515 0.594460 6.267519 -14.104047 -6.685755 -1.521974 6.515741 3.565622 1.398015 1.189756 2.875017 0.456800 -3.383014 -0.092285 1.157534 1.293468 1.260095 -6.561298 -0.630847 2.996746 6.372401 -0.828503 -15.810513 -1.849581 2.012127 -9.164343 3.344252 0.395567 -15.171370 1.480447 -7.433242 -8.144780 2.185738 -8.027996 24.534513 -5.674310 -8.103475 -7.824089 1.972493 0.587285 -3.676216 -1.468793 -7.777557 -20.243407 -2.077511 8.182210 -3.945550 -0.544056 7.335417 24.930957 10.343171 7.489423 -6.704906 
0.000531 -0.000033 -0.000060 174.335413 25.485341 -12.928599 7.600036 6.233699 2.901902 -2.316323 -16.519617 -3.152716 -6.018237 15.706377 -3.454522 3.333148 -1.555725 -5.370579 -4.917098 -4.278559 1.823865 3.893582 13.993488 0.685137 6.279886 -13.786201 -6.779999 -1.744561 6.335773 3.686353 1.327781 1.200702 2.825892 0.453458 -3.407170 0.169961 1.070711 1.210996 0.996073 -6.502015 -0.548705 2.969243 6.107175 -0.894340 -15.456092 -2.777869 2.484824 -9.166922 2.900134 0.260450 -14.904227 3.524078 -10.643568 -8.615379 2.107438 -8.550317 24.574231 -6.024192 -8.249089 -7.832423 2.914881 0.113286 -3.839999 -1.085789 -7.936718 -19.949818 -3.746394 11.901987 -5.047076 -0.232781 7.784212 24.249016 10.585421 7.561840 -6.535297 
0.000347 -0.000017 -0.000243 174.413436 25.422883 -12.947166 7.575756 5.993287 2.920504 -2.377524 -15.762373 -3.095569 -5.774398 14.896281 -3.426557 3.491707 -0.650393 -5.252447 -5.008979 -4.065599 1.861206 3.873618 13.156659 0.694035 6.322610 -12.921698 -6.908864 -1.918139 5.625558 4.017066 1.136412 1.249627 2.557387 0.567170 -3.430796 0.631160 0.929800 1.080638 0.671220 -6.152562 -0.040723 3.205119 5.541916 -0.875405 -14.800788 -4.085015 3.233299 -9.138533 1.312062 -0.156455 -14.054913 7.492750 -16.298398 -9.818680 2.425372 -9.110883 23.457458 -6.814421 -8.460924 -8.052658 4.412207 -0.666968 -4.174092 0.379229 -7.460320 -19.172001 -8.085453 20.453501 -7.738504 -1.422430 8.600501 21.981353 11.476443 7.507064 -6.385986 
-0.000003 0.000265 -0.001226 174.545740 25.224791 -13.054369 7.502134 5.608464 2.924987 -2.478510 -14.480876 -2.838363 -5.249651 13.586215 -3.404124 3.454738 0.848552 -5.127041 -5.181801 -3.693054 1.889932 3.875809 11.860803 0.810459 6.468451 -11.541370 -7.058897 -2.290259 4.578460 4.414563 0.816644 1.406529 2.227234 0.745776 -3.419260 1.389061 0.774121 0.966685 0.179562 -5.470028 0.783044 3.401915 4.954337 -0.968335 -13.962726 -5.743091 3.817454 -8.999551 -1.939566 -1.195482 -12.466300 13.709231 -23.680075 -13.102740 2.956252 -9.713360 20.181935 -8.107599 -8.647036 -8.483951 6.300971 -1.155848 -4.457867 3.765634 -6.306061 -17.551244 -16.043051 32.506446 -14.455589 -3.755047 9.632375 15.909679 12.915839 7.219259 -5.974661 
